<?xml version="1.0" encoding="utf-8"?>
<!-- Generator: Adobe Illustrator 16.0.0, SVG Export Plug-In . SVG Version: 6.00 Build 0)  -->
<!DOCTYPE svg PUBLIC "-//W3C//DTD SVG 1.1//EN" "http://www.w3.org/Graphics/SVG/1.1/DTD/svg11.dtd">
<svg version="1.1" id="Layer_1" xmlns="http://www.w3.org/2000/svg" xmlns:xlink="http://www.w3.org/1999/xlink" x="0px" y="0px"
	 width="201px" height="201px" viewBox="0 0 201 201" style="enable-background:new 0 0 201 201;" xml:space="preserve">
<style type="text/css">
<![CDATA[
	.st0{clip-path:url(#SVGID_6_);fill:#FFFFFF;}
	.st1{clip-path:url(#SVGID_8_);fill:#FFFFFF;}
	.st2{clip-path:url(#SVGID_10_);fill:#FFFFFF;}
	.st3{fill:#FFFFFF;}
	.st4{fill:none;}
	.st5{clip-path:url(#SVGID_12_);fill:#FFFFFF;}
	.st6{fill:#355199;}
	.st7{clip-path:url(#SVGID_2_);fill:#FFFFFF;}
	.st8{clip-path:url(#SVGID_14_);fill:#FFFFFF;}
	.st9{clip-path:url(#SVGID_4_);fill:#FFFFFF;}
	.st10{clip-path:url(#SVGID_18_);}
	.st11{clip-path:url(#SVGID_20_);}
	.st12{clip-path:url(#SVGID_16_);fill:#FFFFFF;}
]]>
</style>
<path class="st6" d="M200.8,100.5c0,55.4-44.9,100.3-100.3,100.3c-55.4,0-100.3-44.9-100.3-100.3C0.3,45.1,45.1,0.2,100.5,0.2
	C155.9,0.2,200.8,45.1,200.8,100.5"/>
<path class="st3" d="M160.3,38.3h-8.7V30h27.2l2.1,8.3h-10.9v38.1h-9.6V38.3z"/>
<g>
	<defs>
		<rect id="SVGID_5_" x="-4.8" y="-3.7" width="210.5" height="208.4"/>
	</defs>
	<clipPath id="SVGID_2_">
		<use xlink:href="#SVGID_5_"  style="overflow:visible;"/>
	</clipPath>
	<path class="st7" d="M39.8,154.4L32,175.2H15.8L51.9,86h19.3l0.8,89.1H56l0.3-20.8H39.8z M56.8,142.4l0.4-19.7
		c0.1-5.4,0.7-14.8,0.8-21.6h-0.3c-2.1,6.7-5,16.5-6.9,21.4l-7.1,19.8H56.8z"/>
	<path class="st7" d="M117.7,86l-17.1,89.1H84.1L101.1,86H117.7z"/>
	<path class="st7" d="M135.9,87.2c5.6-0.9,11.8-1.6,17.7-1.6c7.7,0,15.1,1.5,19.7,6.1c3.7,3.7,5.8,8.9,5.8,14.7
		c0,13.1-7.9,23.5-18.1,27v0.3c4.9,2.3,7,7.4,7.3,17.3c0.3,9.9,0.5,20.9,1.5,24.2h-16.7c-0.4-2.5-0.7-11.5-0.7-21.3
		c0-10.8-2.3-14.4-7.8-14.4h-2.8l-6.6,35.7h-16.1L135.9,87.2z M144.5,126.6h3.8c8.3,0,13.9-8.9,13.9-18.3c0-4.8-2-9.8-8.2-9.8
		c-1.7,0-3.3,0.1-4.4,0.4L144.5,126.6z"/>
</g>
<path class="st4" d="M200.7,101.1c0,55.4-44.9,100.3-100.3,100.3S0.2,156.5,0.2,101.1C0.2,45.8,45.1,0.8,100.5,0.8
	S200.7,45.8,200.7,101.1"/>
<path class="st3" d="M79.4,60.2c-0.2-4.4-0.6-10.4-0.4-15.3h-0.2c-0.9,5-2.2,10.7-3.2,14.2l-4.3,16.6h-6.8l-4.1-16.3
	c-1-3.7-2.3-9.5-3-14.5h-0.2c-0.1,5-0.4,10.9-0.7,15.5l-0.8,16.1h-8.3L50.9,30H61l4,16.8c1.4,5.8,2.6,11,3.5,16.2h0.1
	c0.7-5.2,1.8-10.4,3.2-16.2L75.7,30h10.1l3,46.4h-8.6L79.4,60.2z"/>
<path class="st3" d="M100.7,65.8l-2.2,10.6h-9.3L99.9,30h11.5l9.6,46.4h-9.3l-2.1-10.6H100.7z M108.7,58.8l-1.6-9.7
	c-0.5-2.8-1.2-7.4-1.6-10.5h-0.2c-0.5,3.1-1.2,7.9-1.8,10.6l-1.8,9.6H108.7z"/>
<path class="st3" d="M123.5,30.7c3-0.5,6.8-0.9,10.5-0.9c5.3,0,10,0.7,13.2,3.4c3,2.5,3.9,5.6,3.9,9.6c0,5-2.6,9.4-7.6,11.6v0.1
	c3.4,1.2,5.1,4.2,6,9.2c1,5.2,2.3,10.9,3.2,12.6h-10.1c-0.6-1.3-1.7-6-2.4-11.1c-0.9-5.8-2.4-7.4-5.7-7.4h-1.4v18.5h-9.6V30.7z
	 M133.1,50.9h1.7c4.2,0,6.6-3.2,6.6-7.2c0-3.9-1.7-6.7-6-6.9c-0.8,0-1.8,0.1-2.3,0.3V50.9z"/>
<path class="st3" d="M22.1,67.2c2,1,5.4,1.8,8.1,1.8c4.5,0,6.8-2.2,6.8-5.2c0-3.4-2.2-5-6.4-7.6c-6.8-3.9-9.3-8.7-9.3-12.9
	c0-7.4,5.3-13.6,15.6-13.6c3.2,0,6.3,0.8,7.8,1.7L43.2,39c-1.4-0.8-3.5-1.6-6.3-1.6c-4.1,0-6.1,2.3-6.1,4.8c0,2.8,1.5,4.2,6.8,7.2
	c6.5,3.7,9,8.4,9,13.3c0,8.5-6.7,14-16.4,14c-4,0-7.9-1-9.5-1.9L22.1,67.2z"/>
</svg>
